<?xml version="1.0" standalone="no"?>
<!DOCTYPE svg PUBLIC "-//W3C//DTD SVG 1.1//EN" "http://www.w3.org/Graphics/SVG/1.1/DTD/svg11.dtd" >
<svg xmlns="http://www.w3.org/2000/svg" xmlns:xlink="http://www.w3.org/1999/xlink" version="1.1">
<metadata>
Created by FontForge 20200511 at Sun Mar 17 12:49:00 2024
 By convertio
Copyright 2024 Fuad Hasan Shihab
</metadata>
<defs>
<font id="ShihabRoughHandwriting-Rg" horiz-adv-x="310" >
  <font-face 
    font-family="Shihab Rough Handwriting"
    font-weight="400"
    font-stretch="normal"
    units-per-em="1000"
    panose-1="2 0 5 3 0 0 0 0 0 0"
    ascent="800"
    descent="-200"
    bbox="0 -288 1164 1013"
    underline-thickness="50"
    underline-position="-100"
    unicode-range="U+000D-09F3"
  />
<missing-glyph horiz-adv-x="364" 
d="M33 0v666h265v-666h-265zM66 33h199v600h-199v-600z" />
    <glyph glyph-name=".notdef" horiz-adv-x="364" 
d="M33 0v666h265v-666h-265zM66 33h199v600h-199v-600z" />
    <glyph glyph-name=".null" 
 />
    <glyph glyph-name=".null" 
 />
    <glyph glyph-name="nonmarkingreturn" horiz-adv-x="333" 
 />
    <glyph glyph-name="CR" unicode="&#xd;" 
 />
    <glyph glyph-name="space" unicode=" " 
 />
    <glyph glyph-name="nbsp" unicode="&#xa0;" 
 />
    <glyph glyph-name="uni0964" unicode="&#x964;" horiz-adv-x="143" 
d="M46 666q12 8 30 8q22 0 37 -15t15 -37q0 -14 -8 -51q-3 -17 -3 -36q0 -38 12 -115q14 -85 14 -123q0 -31 -9 -116q-13 -112 -13 -165q0 -75 -58 -75q-35 1 -48.5 19t-13.5 69q0 49 10 132q12 103 12 136q0 32 -9 95q-13 98 -13 147q0 43 13 79.5t32 47.5z" />
    <glyph glyph-name="uni0981" unicode="&#x981;" horiz-adv-x="360" 
d="M162 906q10 7 30 7q26 0 44 -12q20 -13 20 -39q0 -25 -16.5 -46t-40.5 -22q-8 0 -10.5 -0.5t-3.5 -2t1.5 -3.5t9.5 -7q10 -9 29 -9q5 0 19 2q29 5 39.5 14.5t17.5 37.5q5 16 10.5 22.5t15.5 7.5h6q27 0 27 -44q0 -48 -40 -87q-55 -50 -138 -50q-32 0 -60 11
q-46 20 -83.5 69t-37.5 91q0 24 14.5 41.5t34.5 17.5q13 0 37 -22t44 -52q14 -21 23 -21q7 0 -2 12q-7 7 -7 28q0 46 17 56z" />
    <glyph glyph-name="uni0982" unicode="&#x982;" horiz-adv-x="373" 
d="M236 570q-32 8 -71 8q-29 0 -47 -5q-14 -3 -14 -40q0 -39 12 -58.5t40 -29.5q17 -6 41 -6q28 0 54 7t34 19q9 13 9 31q0 20 -11 42q-10 22 -47 32zM82 633q29 7 71 7q102 0 147 -33q55 -42 55 -112q0 -75 -62 -111q-67 -38 -139 -38q-56 0 -89 24q-63 46 -63 131
q0 22 2 34q9 83 78 98zM14 310q12 14 34 14q15 0 54.5 -27t202.5 -148q60 -44 67 -95q1 -4 1 -11q0 -25 -14.5 -39t-34.5 -14q-44 0 -60 49q-11 28 -43 49q-157 111 -200 152q-20 18 -20 39q0 17 13 31z" />
    <glyph glyph-name="uni0983" unicode="&#x983;" horiz-adv-x="410" 
d="M276 612q-29 8 -44 8q-16 0 -54 -11q-80 -26 -80 -82q0 -54 65 -98q53 -35 94 -35q51 0 78 53q18 36 18 71q0 40 -23 63q-24 22 -54 31zM151 668q25 6 57 6q74 0 130 -28q36 -17 45.5 -25.5t16.5 -32.5q10 -34 10 -73q0 -68 -30 -123.5t-80 -76.5q-28 -12 -65 -12
q-98 0 -170 64q-64 56 -64 141q0 68 45 107q43 36 105 53zM317 196q-17 11 -48 15q-6 1 -18 1q-40 0 -64 -25.5t-24 -61.5q0 -63 63 -97q25 -14 55 -14q27 0 43 13q18 14 18 75q0 79 -25 94zM178 264q21 6 48 6q86 0 149 -45q34 -26 34 -50q0 -9 -6 -15q-4 -4 -6 -76
q-2 -61 -13.5 -85.5t-53.5 -54.5q-20 -14 -35.5 -18.5t-47.5 -4.5h-2q-79 0 -132.5 53.5t-53.5 133.5q0 52 34 96t85 60z" />
    <glyph glyph-name="uni0985" unicode="&#x985;" horiz-adv-x="831" 
d="M675 409l-5 101l-36 -2q-51 -3 -106 -4q-69 -4 -69 -8q0 -5 34 -30q35 -25 60 -68.5t29 -87.5q4 -32 10.5 -42.5t34.5 -30.5q30 -24 45 -24h1q7 4 7 51q0 32 -5 145zM8 586q9 10 31 10q5 0 31 -2q208 -20 404 -20q173 0 272 16q46 7 52 7q13 0 22 -9q11 -11 11 -21
q0 -24 -57 -39l-48 -13l5 -144q5 -135 13.5 -195.5t27.5 -96.5q19 -38 19 -57q0 -20 -19 -39t-37 -19q-35 0 -58 65q-11 30 -46 76.5t-55 56.5q-6 3 -10 3q-11 0 -39 -27q-56 -56 -118 -56q-29 0 -62 12q-58 21 -167 104t-130 123q-12 23 -12 56q0 36 13 41q6 2 9 2
q21 0 29 -44q3 -18 13.5 -32.5t40.5 -41.5q42 -38 122 -81.5t109 -43.5q46 0 75.5 39.5t29.5 93.5q0 60 -36 103q-31 37 -83 37q-35 0 -59.5 -18t-24.5 -48q0 -29 11 -29q6 0 12 11q7 13 33 25q14 6 21 6q9 0 22 -9q25 -16 25 -43q0 -20 -13 -46q-13 -28 -37.5 -47
t-46.5 -19q-19 0 -44.5 19.5t-38.5 43.5q-14 28 -14 59q0 75 58 119q26 19 26 24q0 3 -126 11q-124 8 -140 18q-23 14 -23 39q0 10 7 20z" />
    <glyph glyph-name="uni0986" unicode="&#x986;" horiz-adv-x="1165" 
d="M970 643q6 7 18 7q5 0 19 -2q28 -7 92 -7q48 0 56.5 -3.5t8.5 -22.5q0 -38 -79 -49l-42 -5l1 -47q0 -12 0.5 -51t0.5 -56q2 -228 7 -289.5t27 -89.5q15 -18 15 -37q0 -22 -19 -40q-19 -19 -39 -19q-21 0 -43 19q-34 29 -43.5 77.5t-10.5 204.5q-2 194 -2 195
q-1 13 -28 33.5t-68 40.5q-46 22 -59 22l-2 -1q-5 -4 -9 -201l-3 -194l22 -32q25 -38 25 -65q0 -21 -13 -38q-18 -22 -31 -22q-18 0 -33 15.5t-20 36.5q-4 22 -33 57.5t-53 48.5q-14 7 -18 7q-7 0 -24 -17q-45 -45 -125 -45q-55 0 -114 20q-61 21 -99 47.5t-67 70.5
q-69 103 -69 151q0 13 4 21q8 15 21 15q21 0 27 -28q6 -27 31 -70t52 -72q28 -30 59 -41t99 -16q34 -2 40 -2q27 0 46 15q21 18 21 39t9 30q8 8 8 40q0 54 -17 91q-31 70 -88 70q-63 0 -90 -51q-10 -17 -10 -28t13 -11q8 0 29 7q27 10 45 10q22 0 35 -19q9 -13 9 -25
q0 -40 -78 -57q-15 -4 -34 -4q-52 0 -72 29q-13 17 -13 47q0 41 25 80q50 76 145 76q2 0 8 -0.5t8 -0.5q48 -4 79 -18q43 -20 75.5 -88t32.5 -138q0 -25 5 -34t28 -25q23 -15 34 -15q3 0 4 1q4 4 12 137t8 188q0 19 -1 20q-3 5 -129 5q-168 0 -302 -7q-58 -3 -104 -3
q-126 0 -170 30q-19 13 -19 39q0 18 12 29q9 7 22 7q19 0 105 -17q51 -10 175 -10q27 0 185 2l298 4l69 -32q71 -33 77 -33q7 0 12 42q6 41 14 51z" />
    <glyph glyph-name="uni0987" unicode="&#x987;" horiz-adv-x="648" 
d="M96 952q16 17 33 17q20 0 20 -21q0 -10 -6 -22q-10 -16 -4 -28q11 -17 78 -37t160 -34q45 -7 63.5 -19.5t36.5 -47.5q14 -25 14 -58q0 -2 -0.5 -8t-0.5 -9l-2 -44l70 -8q45 -5 60.5 -9.5t22.5 -16.5q8 -11 8 -19q0 -7 -6 -19q-8 -18 -22 -18q-3 0 -17 2q-121 19 -181 19
q-43 0 -117 -6q-135 -9 -197 -9q-77 0 -93 16q-15 15 -15 32q0 14 11 23t199 12q190 4 203 9q13 6 22 32q5 13 5 24q0 13 -10 33q-10 22 -19.5 26t-53.5 9q-88 9 -163 35t-98 55q-17 22 -17 47q0 24 16 42zM202 530q19 10 57 10q22 0 36 -1q85 -4 132 -36.5t47 -85.5
q0 -2 -0.5 -6t-0.5 -6q-4 -42 -38 -109.5t-70 -103.5q-40 -40 -40 -45t58 -41q73 -45 142.5 -100.5t73.5 -71.5q1 -2 1 -6q0 -17 -15 -34.5t-30 -17.5q-13 0 -44 20.5t-59 46.5q-38 36 -132 102q-103 74 -137 80q-27 4 -57 27.5t-30 40.5q0 31 42 31q7 0 23 -2q20 -2 26 -2
q47 0 93 43q24 23 62.5 88.5t38.5 82.5q0 12 -35 28.5t-68 21.5q-4 1 -12 1q-50 0 -83 -46q-16 -22 -16 -33q0 -4 2 -4q5 0 12 7q14 14 37 14q24 0 38 -16t14 -41q0 -22 -12 -46q-25 -47 -72 -47q-54 0 -83 59q-13 28 -13 49q0 24 17 58q10 18 41 48t54 43z" />
    <glyph glyph-name="uni0988" unicode="&#x988;" horiz-adv-x="707" 
d="M141 873q11 17 32 17q13 0 23 -8.5t10 -20.5q0 -2 -2 -10q-1 -2 -1 -7q0 -14 28 -14q27 0 97 14q85 17 136 17q66 0 94.5 -29.5t28.5 -96.5q0 -10 -2 -38l-6 -66l53 -5q42 -5 58.5 -13t16.5 -24q0 -23 -29 -28.5t-151 -6.5q-158 -2 -158 -9q0 -11 28 -28q28 -19 50 -61.5
t22 -77.5q0 -37 10 -37q9 0 26 36q37 81 69 81q8 0 15 -4q13 -7 13 -28q0 -25 -11 -77q-10 -49 -10 -110q0 -90 20 -125q10 -17 16.5 -22t20.5 -5q2 0 7 0.5t8 0.5t8.5 0.5t7.5 0.5q22 0 30 -15q7 -13 7 -26q0 -28 -27.5 -48.5t-68.5 -20.5q-24 0 -37 5t-33 24
q-58 53 -68 172q-6 59 -10 59q-57 0 -103 -15.5t-68.5 -34t-40.5 -34t-25 -16.5q-3 0 -7.5 -0.5t-6.5 -0.5q-59 0 -59 42q0 9 5 24q4 12 43 25q37 13 84.5 43.5t63.5 52.5q23 32 23 66q0 50 -50 94q-23 20 -36 26.5t-33 6.5q-30 0 -56.5 -15.5t-39.5 -39.5q-11 -22 -11 -33
q0 -14 15 -27q11 -11 30 -11q4 0 22 2q16 2 22 2q45 0 45 -36q0 -22 -13.5 -32t-46.5 -15q-6 -1 -17 -1q-48 0 -90 46q-23 24 -23 51q0 14 1 23q3 44 26 74q18 23 18 31q0 3 -54 13q-37 6 -58 20.5t-21 32.5q0 15 16 30q13 11 26 11q12 0 44 -6q52 -9 180 -9q10 0 31 0.5
t32 0.5l191 3l11 55q7 34 7 60q0 32 -14 46.5t-45 14.5q-41 0 -113 -22q-100 -29 -136 -29q-21 0 -42 8q-22 10 -41.5 34.5t-19.5 42.5q0 11 13 30z" />
    <glyph glyph-name="uni0989" unicode="&#x989;" horiz-adv-x="733" 
d="M80 903q10 17 27 17h7q14 -2 18 -6.5t4 -20.5q0 -26 4 -30q5 -5 125.5 -28.5t179.5 -31.5q74 -9 97 -21q26 -13 41.5 -44t15.5 -70v-39h46q46 0 63.5 -6t22.5 -23q3 -9 3 -16q0 -18 -30.5 -22t-143.5 -4q-151 0 -165 -7q-6 -5 -6 -58q0 -49 4.5 -95t10.5 -46q9 0 68 39
q58 40 77 40q22 0 44.5 -16t38.5 -43q20 -35 20 -96q0 -65 -23 -116q-19 -41 -54.5 -80.5t-66.5 -53.5q-33 -15 -87 -15q-57 0 -89 16q-58 25 -118 75.5t-89 96.5q-20 31 -37.5 80t-17.5 70q0 5 1 6q5 12 19 12q17 0 29 -17q13 -21 26 -56q14 -40 51.5 -80.5t88.5 -70.5
q39 -23 56 -28t53 -5q33 0 47.5 4t33.5 18q32 24 55.5 75.5t24.5 98.5v10q0 39 -10 39q-11 0 -73 -57q-72 -68 -109 -68q-12 0 -29 7q-34 13 -44 41.5t-16 129.5q-5 97 -5 124q0 10 -24.5 13.5t-104.5 8.5q-132 9 -132 11q-7 4 -7 22q0 12 4 19q6 11 44 13t221 2
q194 0 237.5 5t43.5 31q0 5 -2 23q-5 39 -28.5 53t-89.5 19q-89 6 -296 47q-27 6 -45.5 28t-18.5 46q0 17 9 30z" />
    <glyph glyph-name="uni098a" unicode="&#x98a;" horiz-adv-x="800" 
d="M168 849q10 10 20 10q18 0 28 -24q9 -24 27.5 -34t53.5 -10q21 0 64 5q49 6 108 6q21 0 29 -1q73 -6 126 -41.5t63 -84.5q5 -26 11.5 -31.5t37.5 -9.5q64 -8 64 -36q-1 -22 -14 -28t-66 -6h-44q-7 0 -20 0.5t-19 0.5q-67 0 -80 -5q-8 -6 -21 -72t-13 -102q0 -34 13 -34
q25 0 95 64q33 31 66 31q21 0 29 -4t15 -20q12 -22 12 -86q0 -61 -12 -104q-27 -105 -64.5 -154.5t-89.5 -49.5q-6 0 -20 2q-27 5 -67 23.5t-68 40.5q-21 16 -62 16h-17h-8q-63 0 -106 32.5t-112 131.5q-46 65 -46 88q0 16 23 19q21 3 25 -9q7 -17 60 -83t68 -76
q23 -16 49 -19q5 -1 13 -1q14 0 14 11q0 12 -16 37q-13 20 -33 78q-18 55 -33 70q-12 14 -12 21q0 4 3 10q10 17 25 17q17 0 34.5 -23.5t30.5 -66.5q14 -45 37.5 -81.5t46.5 -52.5q20 -13 28 -32q7 -18 41.5 -35t63.5 -17q20 0 27.5 5.5t18.5 27.5q20 39 37.5 88.5
t17.5 65.5q0 12 -4 12q-5 0 -42 -33q-67 -61 -108 -61q-30 0 -59 33q-32 38 -32 99q0 37 9 95q9 65 9 86q0 10 -2 12t-43 2q-76 0 -151 -5q-134 -6 -149 -6q-47 0 -62 6.5t-15 24.5q0 2 0.5 5t0.5 5l2 25l115 5q81 4 315 6q137 1 172.5 4t35.5 19q0 8 -8 26q-10 24 -51 48
q-26 14 -43.5 18.5t-52.5 4.5q-58 -2 -107 -12q-52 -12 -88 -12q-62 0 -109 51q-24 27 -24 51q0 14 9 23z" />
    <glyph glyph-name="uni098b" unicode="&#x98b;" horiz-adv-x="768" 
d="M435 383q4 18 4 25q0 6 -2 8q-1 1 -3 1q-21 0 -129 -69q-40 -24 -40 -34l1 -1q6 -6 38 -17q39 -14 69 -28q42 -20 46 -20q8 0 8 54q0 57 8 81zM64 687q18 12 34 12q20 0 35 -19q15 -18 15 -29q0 -12 -19 -51q-15 -32 -15 -52q0 -19 14 -36q8 -9 32 -9q28 0 68 12
q41 12 56.5 27.5t15.5 45.5q0 26 11 41.5t30 15.5q15 0 38 -45q16 -34 35.5 -56.5t31.5 -22.5q4 0 5 1q8 5 8 61v17q-1 27 -1 59q0 20 2 26.5t9 6.5q6 0 11 -1q32 -4 32 -70q0 -33 -6 -91q-11 -105 -11 -123q0 -11 14.5 -24.5t58.5 -43.5q73 -51 77 -51t4 156q0 99 -2.5 130
t-10.5 40q-13 14 -13 35q0 17 9.5 30t24.5 13q16 0 32.5 -15.5t16.5 -31.5q-1 -50 -1 -136q0 -160 9 -241.5t31 -126.5q23 -48 23 -64q0 -18 -14 -34t-30 -16q-27 0 -44 16t-39 66q-31 66 -52 92q-17 20 -50 45.5t-42 25.5q-6 0 -6 -44t16 -67q22 -31 22 -59q0 -21 -14 -35
q-17 -17 -38 -17q-18 0 -32.5 13t-20.5 37q-13 53 -93.5 97t-167.5 44q-41 0 -58.5 11.5t-17.5 37.5q0 21 20 40.5t75 52.5q71 42 71 54q0 2 -3 2q-1 0 -35 -12q-56 -24 -96 -24q-18 0 -29 4q-37 12 -62.5 53.5t-25.5 87.5q0 14 1 20q4 30 24 69t37 50z" />
    <glyph glyph-name="uni098f" unicode="&#x98f;" horiz-adv-x="596" 
d="M390 617q30 9 59 9q52 0 86 -25q36 -27 45 -82t12 -258l4 -236l-19 -19q-17 -18 -39 -18q-25 0 -44 20t-19 50q0 29 -20 48q-19 18 -51 18q-26 0 -87 -9q-54 -7 -86 -7q-77 0 -126.5 28.5t-81.5 89.5q-22 43 -22 80q0 48 38 66q12 6 22 6t16 -6t6 -15q0 -12 -12 -27
q-16 -20 -16 -33q0 -19 27 -55.5t48 -44.5q39 -17 138 -17q44 0 76 4q27 3 55 3q27 0 40 -3q18 -4 22 -4q10 0 15 7q7 10 7 167q0 182 -8 196q-8 15 -37 15q-41 0 -94 -26.5t-75 -61.5q-15 -25 -15 -50q0 -21 11 -49l11 -27l53 2h14q29 0 41 -6t12 -21q0 -10 -2 -16
q-9 -38 -94 -38q-35 0 -59.5 18.5t-34.5 51.5q-7 27 -7 67q0 55 12 82q19 39 68 74t111 52z" />
    <glyph glyph-name="uni0990" unicode="&#x990;" horiz-adv-x="731" 
d="M255 882q0 25 5 32.5t24 7.5q11 0 16.5 -6.5t10.5 -25.5q6 -21 17 -32t51 -34q59 -36 143 -56q89 -23 108 -38q24 -19 62 -76q26 -39 32.5 -56t6.5 -47q0 -44 -17 -69.5t-62 -49.5q-22 -12 -29 -16.5t-12.5 -13t-5.5 -22.5q0 -12 7 -64q7 -56 9 -162q0 -13 0.5 -31
t0.5 -24q0 -35 -3.5 -46t-13.5 -19q-17 -15 -39 -15q-20 0 -38.5 17.5t-18.5 36.5t-24.5 41.5t-53.5 31.5q-13 4 -27 4q-19 0 -70 -13q-66 -19 -157 -19q-42 0 -61 5q-26 6 -45.5 25.5t-40.5 61.5q-29 58 -29 107q0 50 30 50q5 0 8 -1q14 -3 19 -51q6 -61 34.5 -95.5
t72.5 -36.5q39 0 109 13q61 11 119 11q54 0 91 -10l19 -6l-4 118q-8 192 -36 249q-8 17 -16 22.5t-26 7.5h-7q-24 0 -72 -32q-86 -57 -86 -133q0 -25 8 -46q10 -30 33 -30q15 0 37 12q30 16 47 16q16 0 27.5 -15t11.5 -33v-5q-2 -13 -10 -21.5t-30 -19.5q-49 -23 -88 -23
q-25 0 -41 10q-50 32 -50 130q0 4 0.5 11t0.5 10q5 74 33.5 115t107.5 85q54 30 94 30q45 0 86 -38q23 -22 44 -61.5t21 -60.5q0 -20 20 -20q18 0 39.5 16t27.5 38q4 18 4 23q0 14 -15 47q-28 62 -61.5 86.5t-109.5 40.5q-53 11 -83.5 24t-74.5 43q-50 33 -65 51t-15 44z
" />
    <glyph glyph-name="uni0993" unicode="&#x993;" horiz-adv-x="621" 
d="M422 567q-24 12 -49 12q-55 0 -105 -47q-42 -39 -42 -79q0 -9 1 -14q5 -24 12.5 -30t40.5 -9t40 -16q6 -12 17 -12q14 0 45 28q28 25 46 60t18 65q0 18 -4.5 26.5t-19.5 15.5zM317 627q17 5 68 5h13q52 -2 79.5 -16t43.5 -48q13 -26 13 -85q0 -61 -14 -92
q-10 -20 -10 -26q0 -4 11 -12q55 -33 77.5 -62t22.5 -67q0 -34 -23.5 -65.5t-61.5 -50.5q-23 -11 -41 -14.5t-60 -3.5h-29q-79 1 -120 13t-119 58q-89 52 -122 114q-10 19 -23 77.5t-19 111.5q-2 28 -2 32q0 18 10 22q7 3 15 3q16 0 25 -26t20 -99q13 -85 42.5 -121.5
t115.5 -74.5q41 -17 63 -22t59 -5q99 0 143 36q22 19 22 31q0 11 -19 29q-14 12 -27.5 15.5t-49.5 4.5q-58 1 -68.5 3.5t-18.5 19.5t-23 17q-3 0 -23 -2q-5 -1 -16 -1q-47 0 -78 34t-31 84q0 22 5 40q10 39 57 83.5t93 59.5z" />
    <glyph glyph-name="uni0994" unicode="&#x994;" horiz-adv-x="730" 
d="M344 949q23 12 28 12t14 -9t9 -16q0 -13 -36 -38q-34 -23 -34 -37q0 -26 208 -123q67 -31 95 -48t50 -40q52 -55 52 -100q0 -26 -17 -66q-13 -30 -32 -48t-61 -40q-33 -18 -33 -20q0 -4 27 -31q19 -19 23.5 -30t4.5 -37q0 -79 -44.5 -128t-117.5 -50h-3q-62 0 -201.5 54
t-181.5 93q-25 24 -41 54.5t-36 92.5q-16 53 -16 71q0 26 24 26q13 0 19.5 -9.5t17.5 -47.5q22 -73 42 -109t48 -52q38 -22 110.5 -45.5t126.5 -31.5q27 -4 53 -4q35 0 55 12t34 40q14 26 14 39q0 16 -27 16q-13 0 -21 -1q-47 -6 -70 -11q-4 -1 -13 -1q-26 0 -42.5 16.5
t-16.5 43.5q0 18 8 31t36 39q55 52 55 96q0 33 -35 53q-25 13 -50 13q-26 0 -59 -15q-31 -13 -48.5 -39.5t-17.5 -58.5q0 -21 5.5 -28t31.5 -18q42 -19 42 -36q0 -8 -8 -16q-7 -6 -20 -6q-42 0 -81 39q-16 16 -21 27.5t-5 33.5q1 73 58.5 122.5t141.5 49.5q14 0 21 -1
q66 -4 105 -43t39 -99q0 -13 -1 -20q-1 -8 -1 -22q0 -21 4 -21q2 0 34 12q41 17 64.5 44.5t23.5 58.5q0 16 -8 34q-15 31 -47 55t-96 51q-184 80 -233 127q-25 23 -25 56q0 20 5 29.5t21 22.5q35 25 50 32z" />
    <glyph glyph-name="uni0995" unicode="&#x995;" horiz-adv-x="773" 
d="M414 350q0 77 -9 77q-11 0 -58 -31q-42 -28 -77 -45q-28 -10 -28 -21q0 -8 81 -44q62 -26 77 -26q6 0 8 3q6 10 6 87zM716 623q5 5 13 5q15 0 29.5 -12.5t14.5 -27.5q0 -23 -25.5 -30t-112.5 -7q-115 0 -115 -9q0 -11 75 -59q93 -59 120.5 -91t27.5 -80
q0 -53 -37.5 -92.5t-89.5 -39.5q-23 0 -56.5 21.5t-38.5 38.5q-3 12 -3 22q0 19 9.5 30t24.5 11q14 0 30 -9q15 -9 26 -9q12 0 20 9.5t8 24.5t-10.5 34t-20.5 19q-8 0 -66 40q-57 39 -63 39t-6 -123q0 -89 3 -112t19 -53q26 -50 26 -103q0 -39 -15 -54q-16 -16 -38 -16
q-23 0 -40 16t-17 40q0 7 1 10q1 6 1 17q0 40 -22.5 75.5t-49.5 37.5q-17 2 -74 26q-44 19 -113 40q-54 16 -70 38q-16 21 -16 35q0 19 24 39t81 48q63 31 123 69t74 55l2 4q0 6 -60 6q-61 0 -109 -1q-22 0 -53.5 -0.5t-41.5 -0.5q-55 0 -71.5 2.5t-22.5 11.5q-11 16 -11 21
q0 4 10 19q7 10 60.5 13t296.5 5q346 4 349 7z" />
    <glyph glyph-name="uni0996" unicode="&#x996;" horiz-adv-x="677" 
d="M47 698q19 16 34 16q9 0 25 -8q24 -14 24 -47q0 -20 -6 -50q-7 -39 -7 -56q0 -8 1 -10q7 -17 32 -17t53.5 16t39.5 39q13 28 13 35q0 9 16 23q12 10 16 10t19 -10q28 -18 56.5 -81.5t28.5 -108.5q0 -49 -62 -117l-35 -39l46 -24q64 -36 70 -40q24 -17 32 -17t22 113.5
t14 177.5q0 70 -8 107q-3 16 -3 30q0 43 29 43q17 0 38 -14q17 -13 73 -14q40 -1 55 -7t15 -22q0 -2 -0.5 -4t-0.5 -4q-2 -19 -31.5 -33t-67.5 -14h-41l-4 -113q-5 -100 -11 -202q-2 -44 -2 -55q0 -44 10 -83q12 -48 12 -71q0 -24 -12 -40q-13 -17 -40 -17q-20 0 -35 9.5
t-16 24.5q-3 43 -22.5 73t-63.5 61q-28 20 -94 49t-83 29t-36 18.5t-19 35.5t12 33.5t24 16.5q13 0 48.5 27t55.5 53q26 33 26 50q0 10 -6 20q-3 5 -8 5q-8 0 -33 -22q-25 -21 -62 -37t-61 -16q-22 0 -54.5 19t-45.5 39q-16 26 -16 76q0 44 13 86t33 58z" />
    <glyph glyph-name="uni0997" unicode="&#x997;" horiz-adv-x="588" 
d="M363 587q3 0 6 31t12 67t26 45q12 8 27 8q20 0 34.5 -16.5t18.5 -45.5q3 -21 9 -25.5t34 -7.5q59 -8 59 -36q0 -7 -4 -15q-5 -13 -14.5 -17.5t-36.5 -5.5l-43 -2l2 -32q0 -8 1 -38.5t2.5 -83t2.5 -93.5q4 -184 18 -230q9 -32 9 -41t-12 -26q-18 -25 -50 -25q-26 0 -44 19
q-16 17 -21 50.5t-12 164.5q-4 70 -7.5 90.5t-15.5 34.5q-18 22 -27 63q-16 72 -48.5 118t-75.5 54q-4 1 -13 1q-25 0 -59 -11.5t-53 -25.5q-9 -7 -15.5 -29t-6.5 -41q0 -18 6 -22q2 -1 10 -1q20 0 52 6q33 5 49 5q41 0 75 -30q16 -14 20.5 -23t4.5 -31v-14q-1 -46 -20 -73
q-17 -26 -54 -51t-75 -36q-29 -8 -36 -8q-10 0 -23 8q-18 14 -18 32q0 20 21 28q18 8 38 8q22 0 57 20.5t49 41.5q13 20 13 31q0 7 -4 15q-12 24 -38 24q-19 0 -52 -12q-41 -16 -69 -16q-40 0 -59 39q-12 24 -12 53q0 48 31 91t79 59q54 17 98 17q69 0 125 -41
q27 -19 29 -19z" />
    <glyph glyph-name="uni0998" unicode="&#x998;" horiz-adv-x="633" 
d="M486 234q0 32 -12 133.5t-12 131.5q0 43 -6 53q-8 14 -121 14q-40 0 -62 -1l-72 -3l-30 -36q-24 -27 -24 -45q0 -30 137 -30q59 0 71 -6.5t12 -40.5q0 -20 -24.5 -54t-51.5 -50q-28 -19 -28 -24q0 -6 30 -17q29 -9 78 -33t70 -39q19 -13 28 -13q17 0 17 60zM128 627
q66 3 173 3q313 0 321 -10q11 -11 11 -34q0 -8 -3 -14q-8 -11 -57 -14q-51 -4 -57 -10q-2 -2 -2 -17q0 -40 11 -113q22 -155 22 -246q0 -38 -3 -75q-4 -50 -8.5 -62t-19.5 -19q-12 -6 -24 -6q-33 0 -48 37q-34 83 -224 136q-70 20 -91 36t-21 50q0 26 6 34t37 24
q33 18 33 27q0 10 -35 10q-55 0 -96 48q-21 24 -21 45q0 4 2 22q3 37 10 57q2 6 2 9q0 9 -22 16q-14 6 -18.5 10t-4.5 14q0 1 0.5 5t0.5 6l2 27z" />
    <glyph glyph-name="uni0999" unicode="&#x999;" horiz-adv-x="609" 
d="M482 509q5 8 5 19q0 30 -23 64.5t-50 34.5q-19 0 -44.5 -27.5t-36.5 -60.5q-9 -24 -9 -31q0 -8 17 -22q20 -18 40 -18h2q22 0 56.5 14.5t42.5 26.5zM340 662q37 19 70 19q42 0 76 -33q24 -23 40 -61.5t16 -72.5q0 -21 -5 -32q-7 -17 -50 -51.5t-75 -47.5q-28 -11 -55 -11
q-28 0 -28 -11t21 -28t34 -17q16 0 52 23t54 45q24 29 46 29q26 0 45 -38t26 -107q2 -24 2 -35q0 -83 -46 -127.5t-132 -44.5q-46 0 -112 16q-121 31 -190 103q-52 55 -90 125t-38 108q0 21 12 25q7 3 14 3q19 0 25 -34q5 -31 44.5 -91.5t77.5 -94.5q40 -37 84.5 -52.5
t113.5 -15.5h7q54 0 80.5 13.5t40.5 47.5q12 29 12 67q0 19 -5 19q-6 0 -49 -36q-30 -25 -48.5 -34t-41.5 -9q-8 0 -28 2q-124 14 -136 178l-5 62l-55 51q-78 72 -78 105q0 11 21.5 29t34.5 18q17 0 62 -43q46 -44 58 -44q11 0 34 32q24 31 64 51z" />
    <glyph glyph-name="uni099a" unicode="&#x99a;" horiz-adv-x="630" 
d="M364 357q-76 17 -85 19l-21 5l-5 -112q-2 -34 -2 -88q0 -30 1 -32q3 -8 37 -8q56 0 123 53.5t67 96.5q0 4 -2 12q-11 31 -113 54zM288 651q47 3 115 3q202 0 218 -13q10 -8 10 -28q0 -17 -9 -23q-12 -5 -157 -5h-33q-124 0 -152 -5q-25 -5 -31 -9.5t-7 -23.5
q-1 -8 -1 -24q0 -69 24 -80q10 -6 107 -31q74 -19 105.5 -35.5t45.5 -44.5q12 -23 12 -46q0 -82 -144 -189q-43 -31 -75 -41.5t-86 -10.5q-37 0 -49.5 3.5t-28.5 19.5l-24 23l2 179v39q0 140 -6 198l-7 60l-51 4q-37 3 -51 11.5t-14 28.5q0 19 21 25t90 7q76 1 176 8z" />
    <glyph glyph-name="uni099b" unicode="&#x99b;" horiz-adv-x="746" 
d="M371 437q-31 18 -58 18q-17 0 -43 -8q-28 -9 -33 -15t-5 -32q0 -32 9.5 -45.5t33.5 -13.5q21 0 68 13q65 20 65 43q0 19 -37 40zM244 649q50 5 165 5q66 0 98 -1q125 -3 156.5 -5.5t41.5 -12.5q12 -12 12 -26q0 -5 -1 -8l-5 -18h-232h-28q-161 0 -190 -5.5t-29 -35.5v-9
v-26h56q56 0 91 -17q27 -12 42 -12q6 0 30 4q15 3 31 3q46 0 90.5 -22t65.5 -55q17 -28 17 -65q0 -44 -25 -85q-16 -25 -65.5 -67t-62.5 -42q-7 0 -7 -8q0 -15 119 -53q57 -19 84.5 -35.5t39.5 -39.5q8 -18 8 -29q0 -22 -24 -39q-13 -8 -25 -8q-24 0 -43 31
q-19 30 -128.5 72t-193.5 52q-57 7 -74.5 15t-17.5 30q0 37 77 46q67 7 154.5 68.5t87.5 101.5q0 44 -48 70q-23 12 -33 12q-15 0 -15 -31q0 -41 -18.5 -63.5t-81.5 -56.5q-86 -45 -122 -45q-22 0 -46 12q-51 26 -66.5 65t-15.5 142v103l-46 5q-39 4 -52.5 13.5t-13.5 32.5
q0 20 13 27.5t48 7.5q21 0 35 -1q12 -1 45 -1q63 0 102 4z" />
    <glyph glyph-name="uni099c" unicode="&#x99c;" horiz-adv-x="872" 
d="M728 659q42 3 69 3q42 0 58.5 -8t16.5 -27q0 -22 -27.5 -28.5t-129.5 -8.5q-136 -4 -153 -7q-14 -4 -14 -7q0 -2 8 -12q12 -14 119 -60q105 -45 137 -67t32 -49q0 -17 -4.5 -24.5t-17.5 -14.5q-35 -17 -35 -84q0 -55 22 -131q11 -39 11 -64q0 -38 -25 -57
q-19 -15 -35 -15t-35 16q-20 16 -20 43q0 26 -13 76q-10 37 -10 88q0 74 20 120q11 22 11 32q0 12 -16 20.5t-70 29.5q-119 45 -161 78q-15 10 -19 10q-7 0 -24 -17q-23 -22 -46 -58.5t-23 -50.5q0 -8 4 -10.5t19 -2.5q17 0 59 3q30 1 126 9q19 3 31 3q17 0 32 -15
q14 -14 14 -34q0 -11 -1 -18q-7 -70 -77 -149q-84 -95 -182 -95q-46 0 -82 24q-54 36 -80 69.5t-73 126.5q-47 92 -62 110q-12 15 -12 28q0 21 27 24h1q14 0 41.5 -38t59.5 -104q29 -59 54 -89.5t56 -45.5t50 -15q20 0 60 20q26 14 67 56t41 54l-1 2h-3q-24 0 -92 -14
q-62 -13 -97 -13q-45 0 -72 30q-14 15 -18.5 25.5t-4.5 30.5v9q1 68 71 152q36 45 36 53q0 6 -90 6q-43 0 -70 -1q-19 0 -47 -0.5t-37 -0.5q-54 0 -68 3.5t-23 14.5q-10 11 -10 26q0 16 14 25q9 5 323 7q305 2 390 8z" />
    <glyph glyph-name="uni099d" unicode="&#x99d;" horiz-adv-x="884" 
d="M456 453q4 21 -2 25h-1q-11 0 -135 -76.5t-124 -83.5q0 -3 66 -43q65 -36 105 -67q33 -24 44 -24q2 0 2 1q4 4 14 67t20 130.5t11 70.5zM173 603q71 7 192 7q148 0 157 -9t9 -28q0 -16 -7 -23q-5 -5 -14.5 -90.5t-9.5 -124.5q0 -18 25 -28q23 -10 64 -36q34 -24 44 -24h1
q7 5 14 77.5t8 161.5q1 40 2 60.5t4.5 36t9.5 20.5t17 5q5 0 27 -4q34 -9 91 -9q77 0 77 -29q0 -12 -15 -29q-7 -9 -22 -11.5t-56 -2.5h-66l-5 -42q-8 -94 -10 -170q-2 -74 -2 -84q0 -49 11 -78q13 -33 13 -58q0 -44 -43 -44h-9q-14 2 -24 10t-23 32q-40 69 -105 117
q-24 18 -31 18q-5 0 -11 -8q-10 -13 -10 -62q0 -54 12 -87q7 -18 7 -30q0 -21 -13.5 -34.5t-35.5 -13.5q-10 0 -20 3q-19 4 -45 56q-20 40 -47.5 67.5t-92.5 70.5q-87 58 -148 58q-25 0 -44 13.5t-19 30.5q0 30 43 64t187 118q103 60 103 69q0 8 -53 8q-10 0 -90 -2
q-149 -4 -172 -12q-15 -5 -21 -5q-9 0 -18 9q-13 13 -2 22q13 13 65 26.5t101 17.5z" />
    <glyph glyph-name="uni099e" unicode="&#x99e;" horiz-adv-x="925" 
d="M754 547q-24 15 -47 15q-21 0 -45 -12q-19 -9 -26.5 -14.5t-13 -14.5t-5.5 -24q0 -16 12 -86q14 -74 20.5 -91t34.5 -45q40 -40 70 -40q24 0 50 24t26 47q0 19 -19 35q-17 12 -27 12q-7 0 -25 -5q-26 -8 -44 -8q-33 0 -44 22q-6 12 -6 23q0 24 36 42q30 16 54.5 43
t24.5 44q0 18 -26 33zM425 640q34 9 62 9q69 0 98 -56l11 -22l49 25q39 21 64 21q5 0 25 -2q38 -3 77 -23q21 -10 31.5 -21.5t19.5 -33.5q12 -28 12 -39q0 -8 -11 -43t-11 -40q0 -7 12 -14q13 -8 37 -32q23 -23 23 -65q0 -44 -25 -88q-20 -35 -53.5 -54t-70.5 -19
q-47 0 -86 30q-15 12 -26 12q-1 0 -3 -1q-8 -5 -8 -89q0 -74 -9.5 -94t-46.5 -20q-25 0 -37.5 12t-21.5 44q-5 20 -26 42t-42 30q-8 4 -19 4q-18 0 -94 -23q-114 -35 -162 -35q-23 0 -44 6q-52 13 -90 70.5t-55 144.5q-4 20 -4 39q0 47 31 47h5q14 -2 17.5 -7t4.5 -27
q1 -50 22 -103t50 -76q22 -16 60 -16q41 0 130 20q82 19 128 19q33 0 52 -11t26 -11q9 0 11.5 15.5t2.5 57.5q0 88 -25 284q-9 75 -18 82q-5 4 -19 4q-46 0 -97 -24q-39 -20 -69 -49q-43 -40 -43 -93q0 -21 8 -48q9 -25 17 -35t23 -10t39 9t43 9q33 0 39 -26q1 -4 1 -11
q0 -29 -34.5 -50t-76.5 -21q-41 0 -66 21q-22 18 -35.5 59t-13.5 87q0 37 9 68q9 34 53 76q36 35 68.5 53.5t80.5 31.5z" />
    <glyph glyph-name="uni099f" unicode="&#x99f;" horiz-adv-x="583" 
d="M69 921q6 10 22 7q12 -2 16 -11.5t7 -44.5q4 -55 14 -65q7 -8 38 -10.5t132 -2.5h159l26 -26q16 -16 22 -30.5t10 -45.5q4 -32 8 -40.5t14 -8.5q20 0 33 -10t13 -25q0 -12 -7 -18t-28 -14q-24 -8 -43 -8q-7 0 -19 2q-14 2 -48 2q-57 0 -127 -4t-77 -8q-7 -3 -18 -60
q-5 -33 -5 -53q0 -32 13 -129q20 -150 26 -164t20 -14q2 0 10 0.5t13 0.5q80 0 126 55q28 35 28 78q0 9 -2 39q-6 62 -14 62q-5 0 -11 -20q-13 -37 -47 -37q-18 0 -31.5 14t-13.5 38q0 25 5.5 35.5t26.5 24.5q19 13 60 13q30 0 43 -8q29 -15 38 -132q2 -30 2 -41
q0 -44 -11.5 -71t-43.5 -61q-76 -80 -196 -91q-10 -1 -28 -1q-33 0 -50.5 9t-28.5 30q-12 22 -27.5 149t-17.5 213l-1 112l-42 4q-56 6 -56 30q0 6 5 16q8 11 54 17t227 17q154 9 166 13q10 4 10 28q0 27 -12 45q-4 5 -5 6t-4.5 4t-6.5 3.5t-8 1.5t-12 1q-23 0 -66 -4
q-78 -7 -137 -7q-82 0 -105 17q-48 35 -48 101q0 3 0.5 9t0.5 9q4 48 9 59z" />
    <glyph glyph-name="uni09a0" unicode="&#x9a0;" horiz-adv-x="582" 
d="M433 449q-31 29 -41 29t-15 -29q-11 -59 -53.5 -114t-98.5 -82q-40 -19 -40 -30q0 -12 45.5 -42.5t78.5 -43.5q30 -11 50 -11q15 0 32 4q108 22 133 111q5 15 5 24q0 17 -31 80q-37 76 -65 104zM194 889q22 25 34 25q8 0 17 -9t9 -22q0 -15 -14 -26q-33 -23 -33 -68
q0 -30 16 -56q26 -39 50 -67l33 -40l71 5q64 5 128 11q27 3 38 3q18 0 28 -16q5 -8 5 -15q0 -28 -100 -39q-78 -10 -78 -14q0 -6 55 -61q34 -32 53 -59t41 -69t28.5 -62.5t6.5 -47.5v-9q-1 -86 -69 -149t-166 -68q-11 -1 -27 -1q-33 0 -88 27q-58 29 -125 92.5t-67 89.5
q0 19 8 35.5t17 16.5q19 0 78 35t80 59q49 55 49 116q0 29 -15 44q-11 12 -38 12q-14 0 -91 -5q-69 -6 -91 -6q-25 0 -29 7q-7 10 -7 19q0 41 162 44q55 1 55 16q0 9 -18 35q-49 68 -49 121q0 50 43 96z" />
    <glyph glyph-name="uni09a1" unicode="&#x9a1;" horiz-adv-x="753" 
d="M585 644q101 7 130 7q23 0 30 -9q7 -8 7 -21q0 -26 -23 -32q-20 -6 -166 -11q-147 -6 -157 -16q-12 -12 -12 -118q0 -69 8 -77q3 -3 9 -3q34 0 105 63q40 36 65 36q21 0 38 -24q41 -58 42 -167v-20q0 -58 -15 -87q-27 -49 -67.5 -76.5t-85.5 -27.5q-13 0 -19 1
q-93 13 -182.5 77.5t-134.5 152.5q-16 31 -20.5 50.5t-4.5 60.5v25q0 27 3 32.5t15 5.5q14 0 18.5 -8.5t11.5 -46.5q9 -56 27 -90q31 -62 104.5 -111.5t135.5 -51.5q39 0 62 14t39 47q15 35 15 94q0 36 -8 42h-2q-13 0 -40 -22q-104 -84 -149 -84q-25 0 -47 22
q-24 24 -31.5 61.5t-7.5 129.5v105l-129 -2q-20 -1 -56 -1q-74 0 -82 4q-10 6 -10 19q0 18 17 27q13 8 242 16q167 5 325 14z" />
    <glyph glyph-name="uni09a2" unicode="&#x9a2;" horiz-adv-x="570" 
d="M428 637q81 6 102 6q23 0 31 -8q9 -9 9 -26q0 -18 -10 -27q-11 -9 -183 -14q-171 -7 -178 -18q-6 -9 -8 -172v-45q0 -82 4.5 -115t16 -44.5t40.5 -15.5q12 -2 34 -2q100 0 146 93q19 37 19 72q0 28 -12.5 45t-34.5 17q-25 0 -28 -8q-5 -8 -21 -8q-19 0 -29 10q-9 9 -9 25
q0 20 13 30q11 10 54 10q57 0 79 -14q47 -31 47 -110q0 -49 -23 -97q-39 -82 -98 -119.5t-151 -38.5h-8q-58 0 -85.5 14.5t-48.5 56.5q-14 27 -17.5 49t-3.5 88q0 91 4 191l4 92l-24 2q-37 4 -47.5 8.5t-10.5 17.5v6q1 15 10.5 19t59.5 12q60 8 174 10q96 2 183 8z" />
    <glyph glyph-name="uni09a3" unicode="&#x9a3;" horiz-adv-x="571" 
d="M391 702q8 5 15 5q27 0 35 -51l5 -36l53 2q5 0 13 0.5t11 0.5q29 0 38.5 -6.5t9.5 -23.5q0 -18 -15 -26t-59 -13q-45 -5 -51 -16q-1 -2 -1 -22q0 -66 8 -237t12 -199q2 -14 2 -17q0 -15 -11 -28q-15 -17 -42 -17q-30 0 -48 20q-13 13 -16.5 34.5t-6.5 105.5
q-4 85 -7.5 108.5t-15.5 41.5q-18 29 -38 110t-33 109t-36 42q-25 16 -48 16q-27 0 -61 -29q-46 -43 -46 -105q0 -51 34 -85q17 -17 33 -17q4 0 18 2t19 2q15 0 28 -13q16 -16 16 -29q0 -12 -15 -27q-16 -16 -51 -16q-30 0 -52 12q-39 20 -63 69.5t-24 104.5q0 61 29 102
q61 85 150 85q78 0 133 -66q29 -34 36 -34h1q6 6 11 50q9 76 30 91z" />
    <glyph glyph-name="uni09a4" unicode="&#x9a4;" horiz-adv-x="729" 
d="M274 631q22 2 235 4q20 0 50.5 0.5t41.5 0.5q105 0 116 -12q12 -12 12 -18t-10 -19q-7 -10 -50.5 -13t-216.5 -4q-264 -4 -340 -12q-52 -5 -80 -5q-15 0 -17 1q-14 5 -14 23q0 19 14 27q26 14 259 27zM421 521q47 12 84 12q75 0 130 -56q57 -60 57 -128q0 -66 -53 -146
t-113 -107q-39 -17 -84 -17q-47 0 -85 19q-42 21 -110 93t-107 136q-43 69 -65 91q-16 13 -16 26q0 18 28 18q19 0 39.5 -20.5t56.5 -74.5q41 -62 66.5 -91t62.5 -56q61 -46 109 -46q69 0 134 101q37 59 37 88q0 23 -16 54q-29 61 -80 61q-26 0 -65 -12q-32 -10 -57 -26
t-25 -27q1 -27 22 -27q8 0 25 5q20 6 28 6q9 0 24 -9q19 -12 19 -33v-10q-1 -19 -7 -27t-27 -20q-27 -15 -51 -15q-49 0 -81 62q-14 27 -14 55q0 41 34.5 72.5t99.5 48.5z" />
    <glyph glyph-name="uni09a5" unicode="&#x9a5;" horiz-adv-x="625" 
d="M455 673q9 6 16 6q15 0 28 -29q8 -18 16.5 -22.5t42.5 -5.5q40 -2 53.5 -10t13.5 -28q0 -29 -47 -29q-14 0 -22 1q-3 0 -7.5 0.5t-6.5 0.5q-22 0 -28 -27t-15 -144q-4 -60 -4 -117q0 -123 32 -170q18 -27 18 -53q0 -23 -14 -38t-37 -15q-21 0 -34 14t-42 66
q-32 58 -60.5 88.5t-70.5 53.5q-35 18 -86 33.5t-76 15.5q-19 0 -33 14.5t-14 34.5q0 14 6 20.5t25 14.5q46 18 68 34.5t49 50.5q33 44 33 66q0 14 -7 29q-18 37 -86 37q-34 0 -62.5 -16t-31.5 -38q0 -2 -0.5 -4t-0.5 -3q0 -9 11 -9q6 0 23 3q9 2 22 2q16 0 30 -15
q17 -19 17 -36q0 -31 -43 -57q-25 -16 -49 -16q-57 0 -76 73q-5 16 -5 38q0 60 50.5 98t133.5 39q52 0 85 -14.5t60 -50.5q16 -22 21 -36t5 -38q0 -36 -11.5 -63.5t-39.5 -60.5t-28 -40q0 -6 38 -24q36 -17 71 -41q34 -23 40 -23q8 0 12 77q1 9 8.5 90t7.5 124q0 40 -4 72
q-5 34 -5 54q0 16 10 23z" />
    <glyph glyph-name="uni09a6" unicode="&#x9a6;" horiz-adv-x="610" 
d="M466 641q5 5 42 5q82 0 93 -11q9 -9 9 -27t-9 -24q-14 -7 -54 -7q-125 -5 -176 -8l-132 -6l-4 -24q-1 -3 -4 -31t-6 -68.5t-3 -66.5q0 -37 7 -37q22 0 119 59t138 97q35 32 51 32h3q28 -4 28 -33q0 -19 -13 -76q-15 -72 -15 -107q0 -10 2 -36q8 -109 48 -162
q19 -25 19 -50q0 -22 -13.5 -37t-34.5 -15q-19 0 -39 13q-86 57 -86 262q0 84 -6 84q-5 0 -94.5 -57.5t-114.5 -77.5q-28 -23 -49 -23q-19 0 -39.5 20.5t-24.5 43.5q-4 20 -4 81q0 75 5 131q3 34 3 59q0 12 -1 13q-3 5 -41 5h-14h-20q-23 0 -27.5 3.5t-6.5 17.5
q0 2 -0.5 4.5t-0.5 3.5q0 15 20 23q23 9 232 16t213 11z" />
    <glyph glyph-name="uni09a7" unicode="&#x9a7;" horiz-adv-x="576" 
d="M377 424q-5 7 -10 7q-9 -1 -98 -45t-89 -50q0 -11 44 -32q38 -18 89 -56q33 -25 44 -25h1q4 5 12 81.5t8 108.5q0 10 -1 11zM148 656q22 12 58 12q22 0 33.5 -5t27.5 -21q27 -27 27 -43t-17 -36.5t-30 -20.5q-19 0 -33.5 14.5t-14.5 33.5q0 23 -15 23q-14 0 -43 -26.5
t-29 -39.5q0 -14 22 -38t45 -34q18 -9 30 -9q20 0 107 41l74 34l-5 34q-2 18 -2 21q0 16 14 29q13 11 22 11q6 0 46 -10q52 -13 70 -13q16 0 29 -13.5t13 -28.5q0 -3 -2 -9q-10 -28 -84 -28q-36 0 -36 -8q0 -2 2 -8q0 -1 0.5 -3t0.5 -3q0 -17 -8 -31q-10 -18 -19.5 -111.5
t-9.5 -162.5q1 -58 20 -89t19 -59q0 -25 -15 -40t-36 -15q-19 0 -34.5 12.5t-19.5 33.5q-5 23 -45 71t-78 76q-32 23 -86.5 44.5t-81.5 22.5q-22 0 -42.5 17.5t-20.5 37.5q0 21 16 35t70 41l59 29l-36 34q-51 48 -51 89q0 9 1 14q5 21 32.5 51t55.5 44z" />
    <glyph glyph-name="uni09a8" unicode="&#x9a8;" horiz-adv-x="611" 
d="M11 620q7 8 141 8q89 0 151 -1q252 -2 286 -11q21 -12 22 -30q0 -21 -14 -28.5t-51 -7.5h-11q-20 0 -27 -3t-7 -16q0 -14 16 -84q16 -66 24 -183q8 -110 8 -159q0 -57 -8.5 -82.5t-29.5 -34.5q-19 -8 -28 -8q-14 0 -34 16q-15 12 -17.5 26.5t-2.5 84.5v95l-62 62
q-84 85 -137 85q-16 0 -33 -6q-19 -7 -27.5 -15t-15.5 -28q-8 -26 -8 -44q0 -30 15.5 -50.5t42.5 -25.5q12 -2 14 -2q15 0 36 22q23 25 53 25q14 0 24 -7q22 -14 22 -43q0 -9 -3 -16q-10 -26 -36.5 -51.5t-46.5 -29.5q-5 -1 -15 -1q-42 0 -91.5 32.5t-63.5 70.5q-9 24 -9 60
q0 55 18 93q36 71 128 71q74 0 147 -49q41 -27 49 -27q5 0 5 20q0 6 -2 30q-7 50 -11 116l-5 67l-196 -3q-43 -1 -106 -1q-78 0 -96 6t-18 29q0 18 10 28z" />
    <glyph glyph-name="uni09aa" unicode="&#x9aa;" horiz-adv-x="684" 
d="M278 565q-21 8 -38 8q-26 0 -58 -15q-30 -13 -59.5 -36t-29.5 -33q0 -8 47 -26q49 -18 92 -58l44 -41l26 31q23 30 46 53q22 19 22 33q0 11 -36 44t-56 40zM521 680q9 11 21 11q21 0 33 -28q7 -18 15 -22t34 -4q61 0 61 -35q0 -4 -4 -16q-8 -19 -45 -25l-36 -5v-148
q0 -159 8 -234q5 -57 5 -68q0 -22 -14 -37q-19 -19 -40 -19q-22 0 -44 19l-22 19q-1 49 -3.5 147t-4.5 147l-23 24q-25 25 -37 25q-26 0 -69 -67.5t-45 -111.5q-3 -75 -55 -75q-28 0 -41 17.5t-14 59.5q-1 57 -34.5 95.5t-93.5 52.5q-71 17 -71 40q0 17 28.5 57.5t59.5 63.5
q43 35 77.5 48t83.5 14q51 0 84 -13.5t97 -61.5q51 -38 59 -38h1q8 3 13 80q3 71 16 88z" />
    <glyph glyph-name="uni09ab" unicode="&#x9ab;" horiz-adv-x="835" 
d="M24 640q12 6 23 6q6 0 8 -1q16 -5 347 -7q294 -2 356.5 -7t71.5 -25q5 -12 5 -16q0 -8 -9 -17q-12 -12 -156 -12q-15 0 -59 0.5t-73 0.5q-45 1 -120 1q-155 0 -155 -6q0 -9 34 -28q34 -20 63.5 -53.5t29.5 -51.5q0 -20 -17.5 -38t-57.5 -40q-50 -28 -50 -36t39 -22
q101 -32 144 -74q15 -15 25 -15q3 0 5 2q6 6 10 159q3 126 10 145q6 16 19 16q11 0 77 -33q75 -37 114.5 -69.5t66.5 -77.5q29 -49 29 -86q0 -52 -27.5 -83t-73.5 -31q-23 0 -34.5 5t-28.5 22q-27 27 -27 44q0 15 14 30t27 15q3 0 5 -1q15 -6 24 -6q16 0 16 16
q0 22 -27 58.5t-67 63.5q-38 26 -49 26q-4 0 -7 -3q-7 -10 -7 -81q0 -77 8 -139q10 -67 24 -97q15 -36 15 -51q0 -20 -14.5 -32.5t-34.5 -12.5q-23 0 -38 18q-94 115 -134.5 145t-128.5 51q-67 17 -90.5 26.5t-33.5 24.5q-13 18 -13 33q0 21 24.5 45t79.5 57q47 26 47 38
q0 8 -62 43q-59 32 -85 58t-49 26q-21 0 -38.5 15.5t-17.5 31.5q0 17 23 30z" />
    <glyph glyph-name="uni09ac" unicode="&#x9ac;" horiz-adv-x="628" 
d="M486 448q0 27 -13 27q-11 -1 -64 -39t-99 -79l-35 -32l28 -10q51 -21 90 -41q50 -26 67 -26l2 1q5 5 14.5 83t9.5 116zM14 637q12 13 28 13q10 0 26 -3q34 -6 285 -8q186 -1 217.5 -3t44.5 -15t13 -21q0 -4 -5 -16t-14 -17t-29 -6l-34 -2l-1 -76q-7 -136 -11 -192
q-5 -75 -5 -93q0 -32 10 -52q9 -18 9 -35q0 -32 -26 -44q-12 -6 -23 -6q-29 0 -73 65q-41 58 -71 74q-92 52 -181 52q-45 0 -64.5 10t-19.5 34v6q3 26 29 42t143 102.5t133 102.5q6 6 6 7q0 6 -64 6q-65 0 -116 -1l-190 -2l-15 19q-15 18 -15 32q0 13 13 27z" />
    <glyph glyph-name="uni09ad" unicode="&#x9ad;" horiz-adv-x="686" 
d="M244 641q243 8 317 8q58 0 85 -4t33.5 -10t6.5 -20q0 -24 -16.5 -31t-78.5 -7h-47h-34q-127 0 -280 -10q-126 -8 -164 -8q-43 0 -54 7t-11 28q0 23 10 31q9 7 233 16zM301 523q30 25 58 25q29 0 52 -26q19 -24 19 -44q0 -22 -20 -25h-6q-15 0 -21 18t-15 18
q-12 0 -15 -29v-7q0 -21 26 -47l29 -29l64 5q54 4 70 12.5t21 37.5q7 42 29 42q26 0 51 -57q15 -31 19 -52t4 -65q0 -62 -15 -100t-58 -84q-66 -71 -132 -71q-54 0 -125 47q-121 79 -191 216q-45 87 -54 97q-10 10 -10 26q0 24 21 27h3q15 0 34.5 -26t52.5 -91
q27 -52 64 -95t70 -60q7 -4 26 -14t26 -13q23 -13 54 -13q29 0 49 13q23 15 50.5 58t31.5 73q2 16 2 20q0 13 -12 13q-9 0 -68 -19q-54 -19 -82 -19q-26 0 -58 16q-39 19 -61.5 55.5t-22.5 76.5q0 54 40 90z" />
    <glyph glyph-name="uni09ae" unicode="&#x9ae;" horiz-adv-x="693" 
d="M457 479l2 104l-72 1h-24q-107 0 -107 -12q0 -7 17 -22q37 -34 55 -109q6 -22 11.5 -30t18.5 -11q17 -3 53 -21q26 -11 34 -11q2 0 3 1q5 7 9 110zM324 651q66 2 132 2q61 0 87 -1q84 -2 106 -5t32 -14q12 -15 12 -22t-12 -19q-13 -13 -80 -13h-69l6 -30q4 -22 12 -198.5
t8 -251.5q0 -70 -50 -70q-29 0 -43.5 20.5t-18.5 68.5q-5 60 -38 129q-25 51 -44 71t-44 20q-12 0 -30 -5q-21 -6 -30 -14.5t-23 -36.5q-21 -44 -21 -70q0 -28 16.5 -49.5t38.5 -21.5q20 0 42.5 -16t22.5 -31q0 -33 -63 -33q-67 0 -107.5 44t-40.5 117q0 46 14.5 79t51.5 67
l4 4q18 17 23 24.5t5 17.5q0 8 -3 21q-4 21 -11.5 32.5t-30.5 26.5q-39 26 -64 51q-27 26 -52 26q-21 0 -41 11.5t-20 24.5q0 22 24 28.5t102 7.5q81 1 197 8z" />
    <glyph glyph-name="uni09af" unicode="&#x9af;" horiz-adv-x="641" 
d="M467 431l-5 152l-105 2h-39q-67 0 -67 -5q0 -7 27 -25q27 -16 68 -61q40 -44 40 -71q0 -25 -16.5 -42.5t-68.5 -46.5q-50 -27 -50 -35q0 -6 70 -28q66 -21 112 -40q44 -19 47 -19q1 0 1 5q0 12 -3 30q-6 33 -11 184zM137 651q164 6 247 6q78 0 140 -6q73 -7 95 -15.5
t22 -27.5q0 -22 -14 -29.5t-54 -7.5h-49l-4 -42q-1 -7 -1 -29q0 -67 10.5 -187t19.5 -152q11 -40 24 -70q13 -32 13 -46q0 -16 -20 -36t-37 -20q-18 0 -36.5 18.5t-18.5 35.5q0 32 -29 66.5t-70 51.5q-34 13 -114 31q-80 20 -113 36q-41 21 -41 51q0 52 114 122q44 28 44 41
q0 12 -59 45q-61 35 -90 58q-33 26 -51 26q-27 0 -45.5 12t-18.5 29q0 10 7 20q7 9 30 12.5t99 6.5z" />
    <glyph glyph-name="uni09b0" unicode="&#x9b0;" horiz-adv-x="659" 
d="M470 414q2 15 2 39q0 17 -2 18h-1q-12 0 -39 -21q-30 -22 -126 -74q-90 -48 -90 -56q0 -6 47 -18q97 -20 155 -55q30 -19 38 -19q7 0 9 66q0 69 7 120zM151 629q114 2 184 4h12q50 0 153 -7t127 -12q13 -2 22.5 -13.5t9.5 -23.5q0 -3 -2 -9q-4 -10 -24.5 -17.5
t-43.5 -7.5q-7 0 -19 2q-14 2 -15 2q-8 0 -11.5 -4.5t-6.5 -16.5q-7 -30 -7 -198q0 -123 2.5 -154t14.5 -53q20 -38 20 -66q0 -35 -30 -49q-12 -5 -21 -5q-24 0 -43 19.5t-19 46.5q0 13 -29 52t-50 54q-44 32 -191 56q-99 16 -118 33q-18 16 -18 34q0 49 157 131
q202 107 202 127q0 9 -48 9q-33 0 -109 -3q-49 -2 -120 -2q-65 0 -90.5 5.5t-32.5 20.5q-6 12 -6 19q0 15 30 19.5t120 6.5zM227 140q13 3 24 3q23 0 40 -18q13 -14 13 -46q0 -28 -10 -39t-32 -23t-35 -12q-15 0 -33 21.5t-18 39.5q0 24 15.5 46.5t35.5 27.5z" />
    <glyph glyph-name="uni09b2" unicode="&#x9b2;" horiz-adv-x="749" 
d="M279 658q146 15 275 15q173 0 188 -23q7 -11 7 -26q0 -20 -12 -30q-7 -6 -17 -6q-11 0 -35 6q-23 6 -37 6q-8 0 -10 -2q-3 -3 -3 -16q0 -14 3 -29q7 -35 16 -143q9 -110 25 -160q12 -42 12 -69q0 -11 -1 -16q-2 -12 -2 -20q0 -19 6 -28q5 -10 5 -19q0 -23 -21 -42
t-48 -19q-14 0 -37 19q-17 14 -20.5 32t-6.5 102q-3 82 -7 104t-20 52q-30 56 -57 56q-3 0 -11 -2q-21 -6 -21 -34q0 -16 8 -43q13 -43 13 -60q0 -20 -18 -35t-40 -15q-21 0 -32 14q-12 14 -17 64q-10 115 -103 115q-48 0 -74 -24.5t-26 -68.5q0 -12 1 -18q4 -34 20.5 -53.5
t39.5 -19.5q20 0 41 15q17 13 35 13q19 0 32 -15t13 -36q0 -27 -23 -50q-32 -32 -70 -32q-41 0 -83 37q-66 60 -66 146q0 55 20.5 88.5t70.5 59.5q29 15 76 15q54 0 98 -19q31 -14 40 -14q8 0 18 10q18 16 69 16q29 0 42 -7q2 -1 4 -1q19 0 19 109v54h-41q-45 0 -166 -16
q-170 -23 -279 -23q-52 0 -59 7q-12 10 -12 30q0 17 10 24q11 9 69 9q86 3 199 16z" />
    <glyph glyph-name="uni09b6" unicode="&#x9b6;" horiz-adv-x="682" 
d="M489 657q5 9 19 9q15 0 29 -10.5t14 -24.5q0 -17 22 -17q18 0 39 5q27 6 37 6q12 0 23 -14q10 -13 10 -23q0 -25 -50 -25q-36 0 -48 -6.5t-12 -31.5q0 -14 7 -66q20 -155 27 -216q15 -132 24 -149q6 -12 6 -23q0 -23 -20 -40t-45 -17q-26 0 -44 19q-13 14 -18 42.5
t-15 138.5q-10 115 -23 171.5t-36 88t-69 54.5q-40 19 -62 19q-24 0 -32 -20q-3 -7 -3 -19q0 -26 11 -61t24 -47q10 -11 17 -11q9 0 37 14q29 13 40 13q9 0 16 -4q31 -16 31 -49q0 -7 -1 -11q-6 -23 -41 -40.5t-72 -17.5q-25 0 -41 9q-18 9 -36.5 28.5t-23.5 34.5q-1 2 -4 2
q-10 0 -37 -18q-36 -25 -83 -31q-20 -2 -27 -2q-57 0 -60 44v6q0 38 63 48q30 5 54 33q24 27 24 47q0 13 -9 30q-11 22 -27.5 29.5t-52.5 8.5q-42 0 -56 6t-14 23q0 33 67 33q18 0 29 -1q63 -4 113 -39q7 -5 14 -5q9 0 28 9q26 13 67 13q43 0 87 -15q47 -19 53 -19
q7 0 16 39q6 35 14 50z" />
    <glyph glyph-name="uni09b7" unicode="&#x9b7;" horiz-adv-x="705" 
d="M422 340q-8 16 -26 31.5t-36 15.5q-11 0 -55.5 -36.5t-44.5 -44.5q0 -1 48 -22q50 -21 109 -52q52 -29 67 -29h2q1 1 1 11q0 9 -2 39q-1 31 -6 39.5t-22 16.5q-24 10 -35 31zM502 560q-4 11 -113 11q-111 0 -121 -8q-8 -5 -8 -8q0 -5 40 -24q15 -8 60 -36.5t82 -50.5
t46 -22l2 1q4 4 9 46.5t5 71.5q0 13 -2 19zM648 646q4 4 14 4q30 0 40 -18q3 -6 3 -10q0 -8 -21 -28q-17 -14 -29 -18.5t-39 -4.5q-44 0 -53 -12q-10 -13 -13 -171q-2 -96 -2 -110q0 -65 14 -125q15 -62 15 -88q0 -31 -24 -44q-14 -7 -22 -7q-7 0 -21 7q-18 10 -36 39.5
t-26 38.5q-23 26 -87 59.5t-136 57.5q-125 42 -125 81q0 26 52 61q38 26 69 52.5t31 33.5q0 8 -79 47t-86 52q-4 12 -22 12q-28 0 -46 11t-18 28q0 9 4 16q4 10 29.5 13t119.5 8q115 6 315 8q174 2 179 7z" />
    <glyph glyph-name="uni09b8" unicode="&#x9b8;" horiz-adv-x="679" 
d="M490 556q-10 7 -121 7q-93 0 -93 -6t21 -27q19 -16 43 -54l23 -35l60 -2q7 0 16 -0.5t13 -0.5q26 0 31.5 10t11.5 58q3 18 3 28q0 17 -8 22zM12 618q8 8 26 10.5t80 2.5q17 0 175 -2q147 -2 318 -2h11q42 0 51 -12q6 -7 6 -14q0 -23 -50 -40l-38 -12v-82q1 -90 11.5 -208
t20.5 -145q10 -29 10 -47q0 -22 -19 -37q-20 -16 -39 -16q-12 0 -31 8q-23 10 -32 44t-17 142l-10 135l-27 22q-26 21 -43 21h-4q-14 -1 -17 -9t-3 -42q-1 -44 -15.5 -72t-50.5 -56q-54 -40 -109 -40q-42 0 -76 24q-24 17 -50 57t-26 59q0 3 2 7q9 15 20 15q17 0 49 -32
q35 -36 59 -36q17 0 43 17q41 27 41 60q0 20 -10 50q-19 55 -37 75.5t-71 45.5q-35 17 -75 37q-11 8 -43 15q-41 8 -41 34q0 12 11 23z" />
    <glyph glyph-name="uni09b9" unicode="&#x9b9;" horiz-adv-x="574" 
d="M97 627q15 1 117.5 3.5t194 5.5t115.5 5h5q37 0 37 -30q0 -1 -0.5 -3t-0.5 -3q-4 -22 -46 -30t-179 -15q-176 -8 -235 -8q-67 0 -85.5 8.5t-18.5 31.5q0 20 19 27t77 8zM199 528q33 11 74 11q59 0 103 -19q72 -29 99.5 -65.5t27.5 -100.5q0 -94 -81 -174l-40 -39l39 -19
q30 -16 76 -49t64 -53q13 -16 13 -36t-13 -35t-33 -15q-21 0 -68 47q-37 37 -86 65.5t-154 74.5q-71 31 -93 45t-22 30t10 22.5t38 6.5q8 0 38 -2q13 -1 36 -1q58 0 92 18.5t61 64.5q22 38 22 77q0 28 -14 44q-11 14 -53 37q-35 19 -60 19q-12 0 -20 -1q-33 -3 -63 -18
q-39 -19 -39 -54q0 -31 33 -46q29 -13 29 -30q0 -14 -13.5 -27.5t-26.5 -13.5q-35 0 -56.5 30t-21.5 79q0 91 102 127z" />
    <glyph glyph-name="uni09be" unicode="&#x9be;" horiz-adv-x="352" 
d="M145 620q3 9 5.5 32.5t9 34.5t22.5 11q6 0 10 -1q11 -2 18 -9.5t14 -28.5l12 -36l51 -4q65 -6 65 -30q0 -7 -6 -16q-8 -14 -48 -14q-57 -1 -57 -21q0 -2 2 -10q8 -27 15 -131t7 -189q0 -29 -2 -63q-8 -106 -8 -113q0 -22 -20.5 -36.5t-45.5 -14.5q-26 0 -41 16
q-12 14 -12 39q0 21 6 87q10 100 10 226v18v49.5t-4 33.5t-6 23.5t-15 17t-21.5 16t-33.5 18.5q-47 27 -57 36q-14 12 -14 37t13 38q12 14 31 14q25 0 59 -24l36 -24z" />
    <glyph glyph-name="uni09bf" unicode="&#x9bf;" horiz-adv-x="390" 
d="M76 853q23 13 71 13q63 0 120 -21q63 -22 80 -25q25 -4 34 -13.5t9 -29.5q0 -18 -13 -28.5t-35 -10.5q-35 0 -75 25q-74 48 -134 48q-37 0 -57 -21q-19 -18 -19 -39q0 -24 28 -58t55.5 -46t97.5 -21q57 -8 80 -18t23 -28q0 -4 -2 -12q-6 -28 -36 -28q-11 0 -22 6
q-18 9 -33 9q-9 0 -12 -8t-3 -40q0 -6 0.5 -23.5t0.5 -29.5v-26q0 -112 -5 -247q-4 -142 -12.5 -171t-46.5 -29q-36 0 -50.5 26.5t-14.5 103.5q0 62 15 245q7 81 7 127q0 4 -0.5 11t-0.5 9l-2 40l-44 4q-30 2 -38 6.5t-8 19.5q0 16 13 23q17 10 17 18t-32 54q-31 46 -31 86
q0 60 75 99z" />
    <glyph glyph-name="uni09c0" unicode="&#x9c0;" horiz-adv-x="436" 
d="M123 1009q28 4 38 4q44 0 113 -34q57 -28 103.5 -71.5t54.5 -75.5q3 -13 3 -26q0 -44 -58 -102q-47 -47 -47 -62q0 -13 30 -13q49 0 49 -37q0 -14 -13 -23.5t-33 -9.5h-8l-22 2v-250q0 -177 -2 -216.5t-13 -51.5q-16 -17 -39 -17q-22 0 -40.5 16t-23.5 42q-5 27 -5 136
q0 207 10 267q4 24 4 42q0 25 -19 25q-12 0 -19 -2q-5 -1 -13 -1q-18 0 -30 10t-12 27q0 20 11.5 26.5t47.5 6.5q23 0 39.5 11.5t74.5 66.5q54 53 67.5 70.5t13.5 36.5q0 27 -26.5 54.5t-86.5 63.5q-57 34 -93 34q-37 0 -58 -14t-21 -40q0 -17 8 -28t39 -33q34 -25 56.5 -57
t22.5 -56q0 -18 -22.5 -40t-40.5 -22q-19 0 -37 19.5t-18 40.5q0 18 -36 43q-71 51 -71 106q0 39 33 82q17 24 35 34t54 16z" />
    <glyph glyph-name="uni09c1" unicode="&#x9c1;" horiz-adv-x="555" 
d="M247 -64q-12 13 -48 13q-26 0 -43 -2q-45 -4 -71 -19.5t-26 -38.5q0 -11 6 -21q21 -39 106 -39q28 0 39 3.5t20 15.5q22 27 22 67q0 16 -5 21zM298 57q15 12 32 12q19 0 39 -17q13 -12 13 -56q0 -33 6 -44.5t38 -43.5q48 -47 85 -64q27 -13 35 -20.5t9 -23.5v-7
q0 -22 -14.5 -33.5t-37.5 -11.5q-59 0 -111 54q-20 23 -28 23q-4 0 -9 -8q-53 -89 -142 -89q-52 0 -115 30q-46 22 -71.5 54.5t-25.5 68.5q0 30 19 58q23 35 54.5 47.5t104.5 15.5q60 1 73.5 4.5t18.5 16.5q7 18 27 34z" />
    <glyph glyph-name="uni09c2" unicode="&#x9c2;" horiz-adv-x="506" 
d="M132 57q13 19 42 19q32 0 48 -22q16 -20 16 -55t-16 -55q-15 -19 -46 -35.5t-52 -16.5q-19 0 -19 -13q0 -9 9 -22q8 -12 38 -12q3 0 10.5 0.5t12.5 0.5q38 2 48 6t23 26q19 30 32 30q14 0 114 -49q64 -31 89 -48.5t25 -33.5q0 -11 -9 -24q-13 -19 -37 -19q-41 0 -140 60
q-17 10 -25 10q-7 0 -23 -10q-80 -51 -149 -51q-53 0 -85.5 33t-35.5 99q-1 11 -1 28q0 28 19 50q21 25 50 35q28 9 39 17.5t11 20.5q0 14 12 31z" />
    <glyph glyph-name="uni09c3" unicode="&#x9c3;" horiz-adv-x="421" 
d="M131 23q95 68 126 68q20 0 34 -22q8 -13 8 -24q0 -31 -67 -75q-54 -35 -54 -44t39 -21q56 -19 108 -47t71 -49q25 -28 25 -54q0 -23 -20 -34q-13 -9 -27 -9q-28 0 -52 33q-22 29 -78 52.5t-128 34.5q-50 7 -68 13t-29 19q-18 20 -18 36q0 17 27 43t103 80z" />
    <glyph glyph-name="uni09c7" unicode="&#x9c7;" horiz-adv-x="380" 
d="M223 619q33 16 68 16q23 0 31 -8q10 -10 10 -27q0 -11 -10 -20t-37 -22q-43 -22 -81 -63q-30 -34 -62 -94t-32 -84q0 -22 33 -97t54 -100l23 -26l22 26q27 33 70 33q26 0 46 -15q13 -10 17.5 -20.5t4.5 -31.5q0 -32 -20 -58t-56 -42q-28 -14 -58 -14q-33 0 -72 20
q-39 19 -70.5 60.5t-64.5 115.5q-38 85 -38 139q0 31 10 60q22 68 87.5 145.5t124.5 106.5z" />
    <glyph glyph-name="uni09c8" unicode="&#x9c8;" horiz-adv-x="481" 
d="M25 891q19 19 28 19q4 0 12 -4q15 -8 15 -15q0 -5 -11 -21q-10 -14 -10 -34q0 -25 16.5 -50.5t44.5 -40.5q22 -11 54 -11q7 0 49 2q36 2 47 2q37 0 52 -6q21 -7 44.5 -28t23.5 -32q0 -9 24 -27q22 -15 22 -33v-6q-1 -13 -14.5 -23t-55.5 -31q-90 -44 -144 -116t-54 -145
q0 -37 15 -70q16 -37 50.5 -77.5t57.5 -50.5q28 -11 44 -11q26 0 43 26q18 30 51 30t47 -31q5 -10 5 -25q0 -35 -40 -60t-108 -32q-28 -2 -37 -2q-40 0 -68.5 14.5t-63.5 51.5q-105 110 -105 231q0 72 37 142q22 43 79.5 98.5t104.5 79.5q54 28 54 45q0 10 -19 23
q-14 8 -25 8q-13 0 -58 -9q-36 -8 -62 -8q-19 0 -32 4q-58 16 -97.5 64t-39.5 98q0 37 24 61z" />
    <glyph glyph-name="uni09cb" unicode="&#x9cb;" horiz-adv-x="1153" 
d="M965 667q10 10 23 10q21 0 31 -24q7 -19 15.5 -22t58.5 -5q45 -1 55 -15q5 -10 5 -16q0 -23 -60 -34q-4 -1 -9.5 -2t-8 -1t-7 -1t-6.5 -2l-5 -2.5t-4 -3t-2.5 -4t-2 -6t-1 -7.5t-0.5 -9q0 -18 10 -111q9 -86 9 -188q0 -103 9 -162q4 -25 4 -48q0 -47 -33 -56
q-12 -3 -21 -3q-35 0 -54 42q-10 22 -13 59.5t-3 154.5q0 178 -9 216q-5 22 -19 40t-52 54q-38 35 -50 51.5t-12 31.5q0 19 14.5 34t32.5 15q11 0 46 -25q24 -18 36 -18q13 0 13 26q0 21 10 31zM239 628q44 16 67 16q22 0 35 -15q10 -11 10 -23q0 -27 -56 -44
q-64 -19 -115.5 -65.5t-65.5 -99.5q-6 -23 -6 -54q0 -85 27 -139q19 -39 55.5 -75t56.5 -36q1 0 3 1h2q17 5 42 7h7q11 0 14 -4.5t5 -20.5v-7q0 -38 -48 -63q-22 -11 -45 -11q-65 0 -142 83q-49 52 -65.5 98t-18.5 132v27q0 41 4 59t17 46q29 63 87 113t130 75z" />
    <glyph glyph-name="uni09cc" unicode="&#x9cc;" horiz-adv-x="1154" 
d="M542 884q12 13 18 13t16 -6q10 -8 10 -30q0 -2 -0.5 -6t-0.5 -7v-8q0 -32 26 -43.5t128 -25.5q213 -29 244 -40q25 -9 33 -30q2 -4 6 -18q9 -35 18 -40q2 -2 20 -2q19 0 28 1q7 1 20 1q46 0 46 -30q0 -6 -1 -9q-6 -19 -43 -31l-38 -12v-130q0 -117 4 -259q1 -34 1 -78
q0 -52 -12 -67q-15 -17 -46 -17q-27 0 -41 15q-13 13 -18 75t-10 244l-5 202l-43 4q-30 3 -47.5 15.5t-17.5 28.5q0 14 15 29q11 10 35 10q5 0 33 -2l53 -5v25q0 25 -7 29q-10 5 -89 12q-176 18 -250.5 35t-88.5 43q-9 17 -9 54q0 47 13 60zM278 613q40 15 77 15q21 0 30 -6
q9 -5 9 -23q0 -1 -0.5 -3.5t-0.5 -3.5q-2 -15 -10 -21.5t-37 -16.5q-155 -55 -209 -156q-16 -29 -20 -47t-4 -63q0 -43 4 -63t18 -49q17 -34 45.5 -61t44.5 -27q11 0 11 14q0 16 18 25.5t42 9.5q32 0 48 -17q23 -24 23 -51q0 -31 -36 -64q-43 -38 -87 -38q-58 0 -140 66
q-49 39 -76 102.5t-27 134.5q0 80 34 147q30 59 98 114t145 82z" />
    <glyph glyph-name="uni09cd" unicode="&#x9cd;" horiz-adv-x="317" 
d="M14 -3q13 15 22 15q13 0 42.5 -19.5t127.5 -91.5q80 -59 95.5 -74t15.5 -34q0 -28 -17 -39q-16 -12 -32 -12q-20 0 -46 22q-29 25 -111 84q-83 60 -96 76q-14 17 -14 38q0 20 13 35z" />
    <glyph glyph-name="uni09ce" unicode="&#x9ce;" horiz-adv-x="526" 
d="M280 527q-29 16 -66 16q-24 0 -40 -8t-16 -21q0 -4 1 -6q16 -51 51.5 -80t82.5 -29q26 0 36.5 4.5t10.5 16.5t-9 36q-18 53 -51 71zM133 591q33 11 65 11q80 0 141 -55.5t61 -133.5q0 -33 -11 -50q-13 -17 -48 -31t-63.5 -22t-28.5 -12q0 -7 27 -16q39 -14 95 -55t79 -71
q22 -29 49 -93.5t27 -85.5q0 -15 -19.5 -34t-35.5 -19q-22 0 -42.5 25.5t-28.5 62.5q-21 91 -74.5 132t-211.5 85q-16 5 -49.5 41.5t-46.5 63.5q-18 38 -18 80t17 80t47 61q25 20 69 36z" />
    <glyph glyph-name="uni09d7" unicode="&#x9d7;" horiz-adv-x="630" 
d="M6 917q5 5 12 5q23 0 52 -52q25 -46 48 -71q19 -19 38 -19q13 0 43 3q52 6 113 6q92 0 120 -11q29 -11 49.5 -33t25.5 -45q4 -25 25.5 -45t43.5 -20q16 0 35 -14t19 -25q0 -5 -13 -24q-10 -14 -22 -14q-11 0 -18 2l-27 5l1 -47q0 -38 8 -138q11 -143 15 -192
q5 -92 12 -129q3 -12 3 -19q0 -13 -17 -30q-20 -20 -41 -20t-45 22q-19 20 -24 60.5t-15 247.5q-4 89 -6.5 131t-8.5 70.5t-12 35t-20 11.5q-24 8 -32.5 15.5t-8.5 22.5q0 2 0.5 5t0.5 4q1 16 8.5 20.5t38.5 7.5q32 3 39 7t7 22q0 19 -13 34q-18 24 -81 24q-49 0 -119 -15
q-54 -12 -81 -12q-25 0 -43 10t-39 33q-30 34 -53 81t-23 74q0 11 5 16z" />
    <glyph glyph-name="uni09dc" unicode="&#x9dc;" horiz-adv-x="741" 
d="M14 631q9 9 27 9q11 0 35 -3q52 -6 84 -6q402 11 469 11q84 0 97 -11q15 -15 15 -25t-12 -22q-7 -8 -38.5 -10.5t-132.5 -2.5h-78q-19 0 -31 -0.5t-22 -1t-15.5 -4t-9.5 -4.5t-6 -8.5t-3.5 -11t-3 -16.5t-2.5 -20q-1 -5 -1 -16q0 -28 7 -64.5t14 -40.5h1q7 0 69 51
q63 56 77 56q17 0 47 -32t49 -71q15 -32 19 -53t4 -59q0 -151 -148 -229q-28 -14 -47 -18t-63 -4q-49 0 -65 3.5t-43 22.5q-37 24 -82.5 71t-62.5 78q-9 17 -33 89t-38 92q-17 25 -17 40q0 18 20 21h2q18 0 41.5 -33.5t39.5 -83.5q26 -81 57 -121t91 -71q31 -16 64 -16
q35 0 72 19q106 53 106 152q0 30 -10 67.5t-20 37.5q-12 0 -76 -69q-39 -41 -58.5 -56t-34.5 -15q-12 0 -25 7q-11 7 -29 37.5t-28 62.5q-7 19 -13 110l-5 87l-120 1q-97 1 -122 8t-25 34q0 18 13 31zM332 -39q14 12 40 12q2 0 6.5 -0.5t7.5 -0.5q27 -1 37 -6.5t22 -23.5
q18 -27 18 -49q0 -37 -45 -50q-3 -1 -10 -1q-18 0 -41.5 11t-34.5 26q-13 20 -13 44q0 25 13 38z" />
    <glyph glyph-name="uni09dd" unicode="&#x9dd;" horiz-adv-x="612" 
d="M370 638q86 12 140 12q96 0 102 -37v-6q0 -15 -11 -24t-28 -9q-5 0 -15 2q-20 5 -54 5q-15 0 -22 -1q-38 -2 -141 -13t-115 -15q-6 -2 -10.5 -64t-4.5 -128q0 -61 5 -91q10 -50 12 -57q5 -14 37 -34.5t49 -20.5q18 0 59 32t58 58q14 25 14 63q0 29 -9 50q-10 19 -16 19
q-7 0 -23 -19q-15 -20 -41 -20q-19 0 -29 13q-11 13 -11 32q0 28 19 47q18 19 43 19q2 0 8 -0.5t10 -0.5q35 -3 54.5 -16.5t36.5 -47.5q15 -28 15 -81q0 -55 -15 -82q-17 -32 -73.5 -91.5t-77.5 -68.5q-15 -7 -38 -7q-39 0 -88 23q-48 22 -72 52.5t-34 84.5t-10 152v37
q0 19 0.5 46t0.5 35v22t-2 16.5t-2 12t-4.5 8.5t-5.5 5.5t-8.5 3t-10 1.5t-14.5 1t-16 1q-17 2 -23.5 5.5t-7.5 13.5v6q0 18 28.5 24.5t126.5 12.5q148 10 214 19zM260 -27q20 16 37 16q25 0 37 -33q4 -11 4 -23q0 -25 -16 -44t-40 -19q-19 0 -31 16.5t-12 38.5q0 33 21 48z
" />
    <glyph glyph-name="uni09df" unicode="&#x9df;" horiz-adv-x="660" 
d="M462 567q-14 9 -102 9q-36 0 -59 -3q-26 -3 -26 -11q0 -11 47 -37q76 -45 76 -86q0 -19 -17 -39q-19 -21 -81 -54q-61 -34 -61 -42q0 -7 78 -33q70 -23 115 -47q32 -14 39 -14q2 0 2 1q1 1 1 9q0 23 -5 76q-3 42 -3 111q0 43 1 61q2 54 2 61q0 34 -7 38zM10 633
q10 10 274 10q160 0 269 -6q74 -4 88.5 -7t17.5 -17q2 -8 2 -12q0 -17 -18.5 -25.5t-61.5 -11.5l-59 -5l1 -124q0 -116 15 -223q19 -136 19 -166q0 -26 -14 -40q-17 -17 -37 -17q-21 0 -37 17.5t-19 46.5q-4 36 -18 56q-34 47 -211 99q-95 28 -116 43q-24 18 -24 52
q0 17 8 26q13 13 88 60q79 48 79 53t-49 33q-45 25 -79 57q-28 28 -68 35q-39 5 -49 13q-10 7 -10 27q0 17 9 26zM194 112q16 16 30 16q9 0 24 -3q29 -5 45.5 -19.5t16.5 -33.5q0 -21 -19 -40q-17 -17 -35 -17q-9 0 -15 1q-25 4 -45 23.5t-20 38.5q0 16 18 34z" />
    <glyph glyph-name="uni09e6" unicode="&#x9e6;" horiz-adv-x="447" 
d="M315 502q-34 24 -68 27q-2 0 -5.5 0.5t-5.5 0.5q-35 0 -66.5 -24t-46.5 -61q-12 -31 -12 -69q0 -92 54 -141q12 -11 23.5 -14.5t38.5 -3.5h19q82 1 113.5 22t31.5 77q0 3 -0.5 9t-0.5 10q-5 55 -25 100.5t-50 66.5zM150 576q55 19 62 19h1q24 0 72 -19t82 -42
q36 -24 46 -35t10 -25q0 -18 12 -68q13 -52 13 -92q0 -105 -62 -139q-33 -19 -100 -38.5t-96 -19.5q-103 2 -167 122q-18 35 -21 106q-1 15 -1 38q0 38 18 73q27 51 56 77.5t75 42.5z" />
    <glyph glyph-name="uni09e7" unicode="&#x9e7;" horiz-adv-x="413" 
d="M54 642q31 25 61 25q17 0 27 -10t10 -27q0 -27 -20 -50q-20 -25 -20 -39q0 -21 37 -56.5t94 -69.5q171 -101 171 -231q0 -40 -15 -80q-42 -120 -135 -120q-20 0 -37 4q-57 14 -118.5 53.5t-80.5 75.5q-12 21 -12 55q0 24 8 40q7 14 30.5 22.5t48.5 8.5q29 0 42 -12
q14 -12 14 -23q0 -10 -15 -24q-11 -10 -19 -10q-7 0 -19 6q-10 5 -20 5q-13 0 -13 -13q0 -8 7 -21q15 -24 60 -44t83 -20q19 0 29 5q16 7 33 40.5t18 58.5q0 19 -14.5 50t-30.5 44q-20 16 -79 46q-65 34 -98.5 64t-55.5 74q-24 47 -24 81q0 49 53 92z" />
    <glyph glyph-name="uni09e8" unicode="&#x9e8;" horiz-adv-x="480" 
d="M69 622q21 21 47 21q17 0 27 -10t10 -48q0 -35 16 -47.5t97 -41.5q92 -33 117 -57.5t28 -82.5q0 -4 0.5 -11t0.5 -10q0 -30 -15 -53q-37 -54 -102 -70q-30 -9 -30 -15q0 -3 38.5 -15.5t89 -32t72.5 -38.5q15 -12 15 -37q0 -28 -18 -40q-16 -12 -29 -12q-16 0 -34 20
q-19 21 -44 32.5t-100 33.5q-59 17 -140 52.5t-102 52.5q-12 11 -12 24q0 14 10.5 24.5t25.5 10.5q6 0 10 -1q3 -1 15 -1q29 0 81.5 9.5t86.5 20.5q82 28 82 69q0 15 -14 20.5t-111 30.5q-64 16 -97 44q-47 41 -47 93q0 36 26 65z" />
    <glyph glyph-name="uni09e9" unicode="&#x9e9;" horiz-adv-x="524" 
d="M212 557q14 14 26 18t43 4q102 0 172.5 -89t70.5 -217q0 -60 -33 -112t-90 -80q-37 -19 -68 -19q-16 0 -26 1q-74 6 -147.5 59t-106.5 123q-17 36 -34.5 100t-17.5 88q0 2 1 4v2q4 12 23 12q17 0 25.5 -15.5t30.5 -87.5q38 -121 118 -164q46 -25 88 -25q55 0 90.5 39
t35.5 104q0 88 -36 148.5t-94 70.5q-14 2 -16 2q-8 0 -11.5 -5.5t-9.5 -25.5q-4 -16 -4 -35q0 -16 2 -23q4 -16 8 -20.5t15 -4.5q2 0 6.5 0.5t7.5 0.5h9q25 0 38.5 -11.5t13.5 -28.5q0 -34 -41 -54q-30 -15 -50 -15q-18 0 -36 12q-41 30 -41 119q0 84 38 125z" />
    <glyph glyph-name="uni09ea" unicode="&#x9ea;" horiz-adv-x="495" 
d="M293 287q-60 20 -64 20h-1q-8 0 -36.5 -19.5t-39.5 -32.5q-20 -23 -20 -37q0 -17 29 -49q46 -50 100 -50q16 0 39 5q80 18 89 74q1 4 1 11q0 24 -22 41t-75 37zM322 586q-18 9 -49 9q-43 0 -89.5 -16.5t-66.5 -40.5q-19 -24 -19 -36q0 -13 21 -34q16 -17 74.5 -41.5
t82.5 -24.5q22 0 65 26.5t47 42.5q2 10 2 16q0 27 -19 55t-49 44zM143 635q38 13 103 13q73 0 102 -16q31 -16 54.5 -44.5t33.5 -61.5q7 -22 7 -44q0 -58 -61 -91q-21 -11 -21 -22t24 -22q25 -11 56.5 -38.5t42.5 -49.5t11 -65q0 -41 -10 -64q-11 -27 -45.5 -56.5
t-65.5 -37.5q-34 -10 -80 -10q-59 0 -91 17q-31 16 -76 65t-50 72q-3 14 -3 26q0 43 35 84q27 32 27 39t-28 18q-26 10 -55 34.5t-41 46.5q-11 22 -11 61q0 99 142 146z" />
    <glyph glyph-name="uni09eb" unicode="&#x9eb;" horiz-adv-x="531" 
d="M266 470q-56 28 -78 32q-5 1 -15 1q-35 0 -65.5 -26.5t-42.5 -68.5q-11 -36 -11 -92q0 -107 35 -168q18 -32 59 -50.5t90 -18.5q26 0 52 6q52 11 52 26q0 6 -13 9q-23 5 -53.5 42t-35.5 65q-1 6 -1 20q0 66 52 146l31 49zM140 556q21 6 45 6q45 0 117 -22q67 -21 121 -32
q40 -7 54 -16.5t14 -28.5q0 -15 -12.5 -27.5t-33.5 -19.5q-25 -8 -47 -32t-34 -57q-16 -41 -16 -62t16 -37q15 -15 40 -15q5 0 35 2q28 2 35 2q26 0 40 -9q17 -12 17 -34q0 -37 -40.5 -84t-99.5 -74q-32 -15 -53 -19t-74 -4q-55 0 -74 3.5t-48 20.5q-78 43 -109.5 110.5
t-31.5 192.5q0 64 3 85.5t16 45.5q22 44 49.5 67.5t70.5 37.5z" />
    <glyph glyph-name="uni09ec" unicode="&#x9ec;" horiz-adv-x="537" 
d="M152 596q12 14 24 14q8 0 47 -13q62 -21 80 -50t18 -107v-68h27q28 1 61.5 17.5t41.5 33.5q11 26 33 26q10 0 17 -6q16 -14 26 -61t10 -104q0 -61 -12 -109q-14 -49 -32.5 -76.5t-54.5 -47.5q-27 -16 -44.5 -20t-60.5 -4t-63 4.5t-51 20.5q-101 50 -164 214
q-14 40 -39 95q-15 33 -15 47q0 6 3 11q8 15 18 15q24 0 76 -118q64 -147 119 -180q27 -15 76 -15t75.5 13.5t40.5 46.5q10 23 20.5 68.5t10.5 63.5q0 5 -1 6h-1q-11 0 -58 -25q-54 -27 -86 -27q-26 0 -51 20q-32 26 -32 83q0 21 5 63q5 38 5 53q0 19 -7 26.5t-26 12.5
q-23 5 -36 18t-13 29q0 17 13 30z" />
    <glyph glyph-name="uni09ed" unicode="&#x9ed;" horiz-adv-x="494" 
d="M261 535q-16 11 -33 11q-25 0 -68 -25q-38 -23 -64 -60t-30 -75q-1 -7 -1 -20q0 -27 15.5 -36t59.5 -9h9q62 0 94 16l32 15l6 60q3 32 3 54q0 53 -23 69zM183 596q22 7 49 7q42 0 77.5 -17.5t50.5 -46.5q14 -26 23 -87q9 -62 16 -70q6 -6 6 -22q0 -6 -2 -18
q-6 -30 -6 -84q0 -83 11 -107q10 -22 34 -25q52 -6 52 -54q0 -25 -19 -38t-62 -18q-20 -2 -25 -2q-21 0 -43 18q-24 20 -41.5 63.5t-22.5 90.5l-4 49l-74 -4q-38 -2 -47 -2q-36 0 -63 10q-33 13 -59 41t-31 57q-2 8 -2 26q0 70 54.5 140.5t127.5 92.5z" />
    <glyph glyph-name="uni09ee" unicode="&#x9ee;" horiz-adv-x="559" 
d="M330 276q-19 15 -56 15h-9q-59 -2 -70 -8t-11 -38q0 -33 11.5 -70t24.5 -47q8 -6 25 -6q36 0 83 21t52 41q1 2 1 8q0 18 -15 43t-36 41zM11 633q11 11 29 11q44 0 104 -54q27 -25 37.5 -51.5t10.5 -74.5q0 -4 -0.5 -13t-0.5 -14l-3 -69l89 1q71 2 140 13.5t76 23.5
q5 8 5 29q2 20 15 28q5 3 9 3q14 0 25.5 -18t11.5 -42q0 -29 -22.5 -48.5t-76.5 -35.5q-61 -18 -61 -26q0 -4 20 -40q20 -31 20 -70q0 -26 -5.5 -37.5t-30.5 -35.5q-64 -61 -167 -88q-30 -8 -51 -8q-36 0 -57.5 23.5t-38.5 77.5q-23 74 -23 154q0 79 19 208q2 18 2 20
q0 11 -7.5 19t-33.5 27q-27 20 -36 31t-9 24q0 22 10 32z" />
    <glyph glyph-name="uni09ef" unicode="&#x9ef;" horiz-adv-x="554" 
d="M23 615q16 13 36 13q22 0 22 -15q0 -16 -12 -31q-11 -16 -11 -28q0 -45 127 -80q91 -24 176 -60t127 -68q23 -18 44.5 -59.5t21.5 -68.5q0 -41 -32 -82t-83 -63q-24 -11 -115 -35q-79 -19 -98 -32q-16 -11 -40 -11q-16 0 -25 6q-8 5 -19 23q-5 10 -5 18q0 25 40 64
q27 26 43 59.5t16 61.5q0 29 -17 45t-47 16t-57 -15.5t-36 -40.5q-5 -13 -5 -35q0 -10 2 -24q2 -16 2 -20q0 -15 -11 -20q-8 -2 -10 -2q-34 0 -34 75q0 34 4 47t22 32q52 61 144 61q80 0 115 -50q31 -44 31 -101q0 -12 -4 -34q-4 -16 -4 -32q0 -10 2 -12q1 -1 6 -1
q17 0 57 13t54 23q19 14 35 35q12 17 12 28q0 6 -5 24q-12 34 -26 51q-23 30 -118.5 71t-182.5 59q-109 21 -147 87q-17 28 -17 57q0 33 22 51z" />
    <glyph glyph-name="uni09f3" unicode="&#x9f3;" horiz-adv-x="580" 
d="M88 759q38 11 56 11q20 0 45 -12q33 -16 47 -54.5t15 -114.5v-83l150 -2q63 -1 92.5 -2t50 -5t24.5 -9.5t4 -17.5q0 -13 -6 -20t-27 -11.5t-54 -6t-94 -1.5h-145l6 -105q4 -76 8 -98.5t22 -54.5q25 -47 42 -50h5q30 0 97.5 38.5t85.5 66.5q7 10 7 23q0 27 -35 48
q-18 11 -43 11q-5 0 -29 -2q-18 -2 -25 -2q-46 0 -46 23q0 13 18 31q13 13 33 13q18 0 32 -2q100 -11 136 -65q20 -31 20 -58q0 -66 -122 -153q-73 -52 -100.5 -67.5t-50.5 -15.5q-10 0 -16 1q-20 3 -33.5 11.5t-36.5 33.5q-41 44 -59 83q-15 28 -18.5 51.5t-5.5 99.5
q0 8 -1 21q-2 100 -10 114q-6 11 -33 12q-1 1 -3 1h-8q-44 3 -53 17q-6 9 -6 16q0 24 57 27q45 4 49 8q6 6 15.5 74.5t9.5 99.5q0 8 -1 10q-6 20 -30 20q-14 0 -31 -7q-18 -7 -23 -14.5t-7 -27.5q-3 -33 -22 -33q-11 0 -25 12q-15 14 -15 32q0 25 24 49t63 36z" />
  </font>
</defs>
</svg>
